<svg version="1.1" id="spritesheet" xmlns="http://www.w3.org/2000/svg" xmlns:xlink="http://www.w3.org/1999/xlink" x="0px"
	 y="0px" viewBox="0 0 80 80" style="enable-background:new 0 0 80 80;" xml:space="preserve">
<g>
</g>
<g id="burger">
	<path d="M75,22.2H44.4c-0.8,0-1.4-0.6-1.4-1.4V18c0-0.8,0.6-1.4,1.4-1.4H75c0.8,0,1.4,0.6,1.4,1.4v2.8C76.4,21.6,75.8,22.2,75,22.2
		z"/>
<path fill="currentColor" id="trigger" d="M75,33.4H44.4c-0.8,0-1.4-0.6-1.4-1.4v-2.8c0-0.8,0.6-1.4,1.4-1.4H75c0.8,0,1.4,0.6,1.4,1.4V32
		C76.4,32.7,75.8,33.4,75,33.4z"/>
	<path d="M75,11.1H44.4c-0.8,0-1.4-0.6-1.4-1.4V6.9c0-0.8,0.6-1.4,1.4-1.4H75c0.8,0,1.4,0.6,1.4,1.4v2.8
		C76.4,10.5,75.8,11.1,75,11.1z"/>
</g>
<path id="checkmark" d="M33,47.9l-2.3-1.3c-0.6-0.4-1.4-0.1-1.8,0.5L17.6,66.4l-7.3-7.1c-0.4-0.4-1.1-0.4-1.5,0l-2.2,2.3
	c-0.4,0.4-0.4,1.1,0,1.5l11,10.8c0.2,0.2,0.5,0.3,0.7,0.3c0.5,0,1-0.2,1.2-0.6l13.9-23.9C33.9,49,33.6,48.2,33,47.9z"/>
<g id="road">
	<path d="M75.8,52.6l-3.4-3.4c-0.3-0.3-0.6-0.4-1-0.4H54.2c-0.8,0-1.4,0.6-1.4,1.4v5.5h-3.4c-0.7,0-1.4,0.3-1.9,0.8L44,59.9
		c-0.5,0.5-0.8,1.2-0.8,1.9c0,0.7,0.3,1.4,0.8,1.9l3.4,3.4c0.5,0.5,1.2,0.8,1.9,0.8h9v6.1c0,0.7,0.6,1.3,1.3,1.3h0.1
		c0.7,0,1.3-0.6,1.3-1.3v-6.1h5.5c1.5,0,2.8-1.2,2.8-2.8v-6.9h2.1c0.4,0,0.7-0.1,1-0.4l3.4-3.4C76.3,54,76.3,53.2,75.8,52.6z
		 M66.5,65.3C66.5,65.3,66.5,65.3,66.5,65.3H49.4l-3.4-3.4l3.4-3.4h4.8h12.3L66.5,65.3z"/>
	<path d="M61.1,46.3c0-0.7-0.6-1.3-1.3-1.3h-0.1c-0.7,0-1.3,0.6-1.3,1.3v0.7h2.8L61.1,46.3L61.1,46.3z"/>
</g>
<g id="calendar">
	<path d="M30.8,9.7c0-0.1,0-0.2,0-0.3V8.2h-2.4V6.9c0-0.8-0.6-1.4-1.4-1.4s-1.4,0.6-1.4,1.4v1.3H14.4V6.9c0-0.8-0.6-1.4-1.4-1.4
		c-0.8,0-1.4,0.6-1.4,1.4v1.3H9.2v1.4v1.3v1.5V13v2.2v0.5V32v1.4h21.6V15.7V13v-2.1v-1C30.8,9.8,30.8,9.7,30.8,9.7z M12,30.6v-14h16
		v14H12z"/>
<path fill="currentColor" id="trigger" d="M17.9,28.1h2.8c0.6-2.3,1.5-5,2.5-7.1v-2.1h-6.3v2.4c2,0,2.8,0,3.4,0C19.6,22.6,18.5,25.5,17.9,28.1"/>
</g>
</svg>
